<svg xmlns="http://www.w3.org/2000/svg" width="1em" height="1em" preserveAspectRatio="xMidYMid meet" viewBox="0 0 24 24"><path fill="currentColor" d="M5 21q-.825 0-1.413-.587Q3 19.825 3 19V5q0-.825.587-1.413Q4.175 3 5 3h14q.825 0 1.413.587Q21 4.175 21 5v14q0 .825-.587 1.413Q19.825 21 19 21Zm7-3q.525 0 .887-.363q.363-.362.363-.887t-.363-.887Q12.525 15.5 12 15.5t-.887.363q-.363.362-.363.887t.363.887Q11.475 18 12 18Zm1-4.7q.075-.4.263-.7q.187-.3.737-.85q.925-.925 1.25-1.5q.325-.575.325-1.3q0-1.275-.937-2.112Q13.7 6 12.275 6q-1.075 0-1.912.438q-.838.437-1.288 1.162q-.225.35-.125.737q.1.388.45.538q.35.15.688.012q.337-.137.537-.462q.25-.35.675-.538q.425-.187.875-.187q.7 0 1.125.375q.425.375.425.95q0 .475-.287.95q-.288.475-.888 1q-.65.575-1 1.175q-.35.6-.35 1.125q0 .35.263.6q.262.25.637.25q.35 0 .588-.238q.237-.237.312-.587Z"/></svg>